<?xml version="1.0" encoding="utf-8"?>
<!-- Generator: Adobe Illustrator 22.1.0, SVG Export Plug-In . SVG Version: 6.00 Build 0)  -->
<svg version="1.1" id="Layer_1" xmlns="http://www.w3.org/2000/svg" xmlns:xlink="http://www.w3.org/1999/xlink" x="0px" y="0px"
	 viewBox="0 0 522.3 36" style="enable-background:new 0 0 522.3 36;" xml:space="preserve">
<style type="text/css">
	.st0{fill:#EE3124;}
	.st1{fill:#FFFFFF;}
</style>
<g>
	<path class="st0" d="M22.6,6.9H10.2v8.8h12.5c3.4,0,5.8-0.3,7.1-0.9c1.3-0.6,2-1.8,2-3.5c0-1.4-0.4-2.4-1.1-2.9
		C29.4,7.3,26.7,6.9,22.6,6.9 M10.2,35.3H0V0.7h25c5.8,0,10.1,0.8,12.8,2.5c2.8,1.6,4.2,4.3,4.2,8c0,2.5-0.8,4.6-2.4,6.2
		c-1.7,1.8-4.2,2.9-7.4,3.5l11.9,14.5H32.8L22.1,21.8H10.2V35.3z"/>
	<path class="st0" d="M54.1,17.9c0,8.1,4.4,12.2,13.1,12.2c8.8,0,13.2-4,13.2-12C80.4,10,76,6,67.2,6c-4.4,0-7.7,1.1-10,3.2
		C55.1,11.2,54.1,14.1,54.1,17.9 M67.1,0c7.4,0,13.1,1.2,17,3.5c4.9,2.9,7.4,7.7,7.4,14.5c0,12-8.1,18-24.3,18
		c-8.3,0-14.4-1.5-18.3-4.5C45,28.5,43,24,43,17.9C43,6,51,0,67.1,0"/>
	<path class="st0" d="M127.9,29v-8.1h-13.5v-6.1h23.9v20.5h-21.9c-15.3,0-22.9-5.6-22.9-16.6c0-6.4,2-11.1,6.1-14
		c3.7-2.6,9.3-3.9,16.8-3.9h21.9v6h-21.9c-3.7,0-6.4,0.8-8.2,2.3c-2.2,1.8-3.3,4.9-3.3,9.2c0,3.6,0.8,6.2,2.4,7.9
		c1.8,1.9,4.8,2.8,9,2.8H127.9z"/>
	<path class="st0" d="M142.4,21.7v-21h10.2v20.8c0,2.9,0.6,5,1.7,6.2c1.6,1.6,4.7,2.5,9.2,2.5c3.9,0,6.5-0.6,8.1-1.7
		c1.8-1.3,2.7-3.6,2.7-7V0.7h10.1v21c0,4.8-1.2,8.2-3.7,10.2c-3.1,2.5-8.8,3.8-17.2,3.8c-8.2,0-13.9-1.2-17-3.7
		C143.8,30,142.4,26.5,142.4,21.7"/>
	<path class="st0" d="M226.3,0.7v6h-16.7c-7.2,0-11,2.7-11.5,8.1h28.2v6h-28.2c0,3,0.9,5.2,2.7,6.5c1.8,1.3,4.7,1.9,8.7,1.9h16.7v6
		h-17.1c-15.1,0-22.6-5.6-22.6-16.6c0-5.7,1.6-10,4.8-12.9c3.7-3.3,9.8-5,18.1-5H226.3z"/>
	<g>
		<path class="st1" d="M240.4,35.3h-10.3V19.4c0-5.5,0.9-9.6,2.8-12.5c1.7-2.6,4.3-4.3,8-5.2c2.9-0.7,7.2-1.1,13-1.1h15.5v6h-16.5
			c-4.2,0-7.2,0.6-9.1,1.8c-2.1,1.3-3.2,3.5-3.5,6.7h29.1v5.9h-29.1V35.3z"/>
	</g>
	<rect x="275" y="0.7" class="st1" width="10.7" height="34.6"/>
	<polygon class="st1" points="314.8,35.3 304.2,35.3 304.2,6.8 288.7,6.8 288.7,0.8 330.4,0.8 330.4,6.8 314.8,6.8 	"/>
	<polygon class="st1" points="343.7,35.3 333.3,35.3 333.3,0.7 346.2,0.7 366,25.6 365.5,0.7 375.8,0.7 375.8,35.3 364.1,35.3 
		343.3,9.1 	"/>
	<path class="st1" d="M418.2,0.7v6h-16.7c-7.2,0-11,2.7-11.5,8.1h28.2v6H390c0,3,0.9,5.2,2.7,6.5c1.8,1.3,4.7,1.9,8.7,1.9h16.7v6
		H401c-15.1,0-22.6-5.6-22.6-16.6c0-5.7,1.6-10,4.8-12.9c3.7-3.3,9.8-5,18.1-5H418.2z"/>
	<path class="st1" d="M437.3,0.7H464v6.2h-25.1c-5.3,0-8,1.5-8,4.5c0,2.5,2.2,3.8,6.5,3.8h13.4c5.8,0,9.9,0.8,12.4,2.5
		c2.2,1.5,3.3,3.9,3.2,7.3c-0.1,3.5-1.3,6-3.8,7.6c-2.7,1.8-7.1,2.7-13.2,2.7h-27.1v-6.2h25.5c3.1,0,5.2-0.4,6.4-1.2
		c1-0.6,1.4-1.7,1.4-3.3c0-1-0.4-1.8-1.1-2.3c-1.1-0.7-3.1-1.1-6.1-1.1h-12c-10.9,0-16.3-3.4-16.2-10.1c0.1-3.4,1.3-6,3.8-7.7
		C426.8,1.6,431.2,0.7,437.3,0.7"/>
	<path class="st1" d="M485.3,0.7h26.8v6.2h-25.1c-5.3,0-8,1.5-8,4.5c0,2.5,2.2,3.8,6.5,3.8h13.4c5.8,0,9.9,0.8,12.4,2.5
		c2.2,1.5,3.3,3.9,3.2,7.3c-0.1,3.5-1.4,6-3.8,7.6c-2.7,1.8-7.1,2.7-13.2,2.7h-27.1v-6.2h25.5c3.1,0,5.2-0.4,6.4-1.2
		c1-0.6,1.4-1.7,1.4-3.3c0-1-0.4-1.8-1.1-2.3c-1.1-0.7-3.1-1.1-6.1-1.1h-12c-10.9,0-16.3-3.4-16.2-10.1c0.1-3.4,1.3-6,3.8-7.7
		C474.8,1.6,479.2,0.7,485.3,0.7"/>
	<g>
		<g>
			<path class="st1" d="M518.9,3.6c0.5,0,1.1,0,1.1-0.7c0-0.5-0.4-0.6-0.9-0.6h-0.9v1.3H518.9z M518.3,5.7h-0.5V1.8h1.5
				c0.9,0,1.3,0.4,1.3,1.1c0,0.7-0.5,1-0.9,1.1l1.1,1.7h-0.6L519,4h-0.8V5.7z M521.7,3.8c0-1.6-1.2-2.9-2.8-2.9
				c-1.6,0-2.8,1.3-2.8,2.9c0,1.6,1.2,2.9,2.8,2.9C520.6,6.6,521.7,5.4,521.7,3.8 M522.3,3.8c0,1.8-1.5,3.3-3.3,3.3
				c-1.8,0-3.3-1.5-3.3-3.3c0-1.8,1.5-3.3,3.3-3.3C520.8,0.5,522.3,2,522.3,3.8"/>
		</g>
	</g>
</g>
</svg>
