<?xml version="1.0" encoding="UTF-8"?>
<svg width="271px" height="58px" viewBox="0 0 271 58" version="1.1" xmlns="http://www.w3.org/2000/svg" xmlns:xlink="http://www.w3.org/1999/xlink">
    <!-- Generator: Sketch 49.3 (51167) - http://www.bohemiancoding.com/sketch -->
    <title>Page 1</title>
    <desc>Created with Sketch.</desc>
    <defs>
        <polygon id="path-1" points="0 0.167676503 7.88711588 0.167676503 7.88711588 14.568212 0 14.568212"></polygon>
        <polygon id="path-3" points="0.133094021 0.243619672 9.68251937 0.243619672 9.68251937 12.0270295 0.133094021 12.0270295"></polygon>
        <polygon id="path-5" points="0 57.3333333 270.124818 57.3333333 270.124818 0.0521639344 0 0.0521639344"></polygon>
    </defs>
    <g id="UI" stroke="none" stroke-width="1" fill="none" fill-rule="evenodd">
        <g id="1.14-Planner-Save-Modal" transform="translate(-585.000000, -190.000000)">
            <g id="Page-1" transform="translate(585.000000, 190.000000)">
                <polygon id="Fill-1" fill="#030404" points="121 24.9278965 121 19 116.635829 19 114.777869 19 111.585649 19 106 19 106 25.277098 106 29.9038992 107.707911 29.9038992 108.830337 29.9038992 115.214286 29.9038992 116.22442 29.9038992 116.22442 31.9517266 114.591043 31.9517266 111.947532 31.9517266 110.77509 31.9517266 110.77509 31.012152 108.231612 31.012152 106 31.012152 106 34.4705259 106 36 110.476463 36 114.591043 36 121 36 121 25.8556259 115.575678 25.8556259 111.049689 25.8556259 110.77509 25.8556259 110.77509 24.0361772 110.77509 23.0482734 111.685682 23.0482734 112.571265 23.0482734 115.177019 23.0482734 116.22442 23.0482734 116.22442 24.9278965"></polygon>
                <polygon id="Fill-2" fill="#030404" points="63.3512948 36 77 36 77 31.9517266 68.3883342 31.9517266 68.3883342 29.5305332 77 29.5305332 77 25.4699406 68.3883342 25.4699406 68.3883342 23.0482734 77 23.0482734 77 19 63.3512948 19 63.3512948 25.4699406 62 25.4699406 62 29.5305332 63.3512948 29.5305332"></polygon>
                <polygon id="Fill-3" fill="#030404" points="54.019789 36 54.019789 30.6506313 49.9542923 30.6506313 49.9542923 31.9517266 45.8402609 31.9517266 55 19 39.8509811 19 39.8509811 24.4213886 43.9164777 24.4213886 43.9164777 23.0482734 47.1592633 23.0482734 38 36"></polygon>
                <polygon id="Fill-4" fill="#030404" points="99 35.8952103 99 19 94.3664047 19 94.3664047 32.445668 91.6188605 32.8588298 88.6340864 32.4700279 88.6340864 19 84 19 84 35.8708505 91.6188605 37"></polygon>
                <g id="Group-83">
                    <g id="Group-7" transform="translate(0.000000, 42.765027)">
                        <mask id="mask-2" fill="white">
                            <use xlink:href="#path-1"></use>
                        </mask>
                        <g id="Clip-6"></g>
                        <path d="M7.12556942,0.67991694 L7.10908573,0.506977049 L7.13593059,0.46233224 C7.13545963,0.373042623 7.13922733,0.285632787 7.14676273,0.20339235 C7.09260204,0.193523497 7.04315097,0.180834973 6.99511279,0.167676503 L6.04847803,2.53385137 L4.9002713,0.60096612 L-9.4192513e-05,14.568212 L5.01518616,5.07578579 L5.97029824,6.50253989 L7.88711588,1.95722842 C7.45053359,1.69358907 7.17925915,1.25231038 7.12556942,0.67991694" id="Fill-5" fill="#FFF100" mask="url(#mask-2)"></path>
                    </g>
                    <path d="M25.0155063,13.097706 L25.1261825,13.1639683 C25.1266535,13.2537279 25.2217879,13.2368098 25.2147235,13.3185803 C25.6079772,13.3199902 25.6079772,13.3199902 25.6319963,13.6179355 L26.2442476,12.0863836 L27.3929253,14.0192689 L32.2932908,0.0524928962 L27.2784814,9.54491913 L26.3228984,8.11863497 L24.4060808,12.6634765 C24.8426631,12.9271158 24.9618166,12.5253126 25.0155063,13.097706" id="Fill-8" fill="#FFF100"></path>
                    <path d="M4.05399866,21.5615158 C4.06954043,21.560576 4.08319834,21.5586962 4.08319834,21.5586962 C4.08319834,21.5586962 4.07095332,21.560576 4.05399866,21.5615158 Z M4.60267005,24.5522481 C4.60690871,24.501024 4.6083216,24.4648383 4.6083216,24.4648383 C4.6083216,24.4648383 4.60690871,24.501024 4.60267005,24.5522481 Z M6.1168147,31.1084557 C6.12482106,31.0088273 6.13612416,30.9453847 6.13612416,30.9453847 C6.13612416,30.9453847 6.12482106,31.0092973 6.1168147,31.1084557 Z M25.7625471,14.0301716 C25.8708685,14.147188 25.9495193,14.2792426 26.0074477,14.4169366 C25.135225,13.2777891 23.638506,14.2543355 23.638506,14.2543355 L23.5188815,14.2543355 C23.5188815,14.2543355 23.7882721,14.284412 23.9083675,14.5236142 C24.027992,14.7632863 24.0878043,14.8535158 24.027992,15.1524011 C23.9681798,15.4512863 23.8782259,15.660412 23.8184137,16.1392863 C23.7581305,16.6181607 23.8485553,16.8869694 23.8485553,17.2164011 C23.8485553,17.5453628 23.5188815,17.5754393 23.4585983,17.844718 C23.4534177,17.8668055 23.4515338,17.8907727 23.44965,17.9147399 C23.3554575,17.7183027 23.2631488,17.5688601 23.1741369,17.5129366 C22.7945411,17.2765541 23.2692713,19.0303902 23.2692713,19.2197781 C23.2692713,19.4096361 23.3168385,20.2155923 23.411973,20.4999093 C23.4180955,20.519177 23.4293986,20.5534831 23.4430565,20.5976579 C22.3160431,19.9073082 21.1513527,20.4660732 20.7039382,20.6897672 C20.228737,20.9266197 19.0880657,20.7372317 18.5657682,21.2584011 C18.5389233,21.285188 18.5200848,21.3180842 18.4965367,21.3472208 C18.1833466,21.1761607 17.6662297,21.0464557 17.5856951,20.9082918 C17.4693673,20.708565 17.6026497,20.2423792 17.6530427,19.909188 C17.7024938,19.5764667 17.3186593,19.1929913 17.3186593,19.1929913 C17.3186593,19.1929913 17.4024906,20.2254612 17.3186593,20.7583792 C17.2352989,21.2912973 16.3508312,21.2081169 16.3508312,21.2081169 C16.3508312,21.2081169 16.4012242,21.3082153 16.66826,21.6912208 C16.9352958,22.0742262 17.2018606,21.9576798 17.8028088,22.1574066 C17.9601103,22.2095705 18.0623092,22.2499858 18.1338955,22.2833519 C18.0792638,22.6644776 18.0910379,23.0352645 18.0910379,23.2495596 C18.0910379,23.6762699 17.9002981,23.9605869 17.8532018,24.2928383 C17.8056346,24.6246197 18.1381342,25.335647 18.1381342,25.335647 C18.1381342,25.335647 18.3759703,25.430106 18.6133354,25.4775705 C18.8507005,25.525035 19.0409694,25.9042809 18.8987387,26.1885978 C18.8869646,26.2120951 18.8714229,26.2219639 18.857294,26.2351224 C18.7145923,26.1561716 18.5652972,26.1152863 18.4376664,26.1021279 C18.3835057,26.0687617 18.341119,26.0537235 18.3279321,26.0941388 C17.9959035,26.0941388 17.8056346,26.4733847 17.6153657,26.7577016 C17.4255678,27.0420186 17.0450301,26.8051661 16.8081359,26.8051661 C16.5702998,26.8051661 16.8081359,27.184412 16.8081359,27.184412 C16.8081359,27.184412 17.3780006,27.3742699 17.6153657,27.468729 C17.8532018,27.5636579 18.3279321,27.5636579 18.945835,27.6111224 C18.995757,27.614882 19.0400275,27.6289803 19.0857109,27.6411989 C19.1775486,27.8507945 19.3904236,28.3094612 19.5260608,28.3940514 C19.6188405,28.4518546 19.7591873,28.4354066 19.8500831,28.3696142 C20.4213607,28.3301388 20.8164983,28.9185104 21.097192,29.3254831 C21.1659525,29.6643137 21.3995499,30.1756142 21.3383248,30.4669803 C21.2493129,30.8861716 20.7858857,30.5327727 20.7858857,30.5327727 C20.7416152,30.6215923 21.1617138,30.8419967 21.4047305,30.7094721 C21.6472762,30.5774175 21.6472762,30.246576 21.7800877,30.0257016 C21.9124282,29.8052973 21.7141529,29.5848929 21.625612,29.386576 C21.6194895,29.3734175 21.612425,29.3579093 21.6063025,29.3438109 C21.6491601,29.377177 21.6953144,29.4138328 21.7485332,29.4598874 C22.0815037,29.7446743 22.0815037,29.9340623 22.0815037,30.1709148 C22.0815037,30.4171661 22.0301688,30.7653956 22.1935928,31.1103355 C22.1676899,31.1620295 22.1592125,31.1798874 22.1333096,31.2320514 C21.9373892,31.2569585 21.713211,31.3438984 21.537071,31.4374175 C21.2055134,31.613647 20.7416152,31.2391005 20.7416152,31.2391005 C20.7416152,31.2391005 20.8296852,31.5036798 20.9624967,31.7240842 C21.0953081,31.9444885 21.3821243,31.7240842 21.8907639,31.768259 C22.1959476,31.794576 22.2694178,31.9332098 22.3231075,32.1052098 C22.3212237,32.1240077 22.3216946,32.1442153 22.3193398,32.1620732 C22.2713016,32.4938546 22.0815037,33.0624885 21.9863693,33.2998109 C21.9058347,33.5009475 21.5540257,34.0418546 21.4198013,34.4328492 C21.3882468,34.3069038 21.3519827,34.2989148 21.2431904,34.0583027 C21.0802373,33.7020842 21.2431904,33.5723792 21.2747449,33.2156907 C21.3077122,32.8594721 20.8852588,32.3730787 20.8852588,32.5352098 C20.8852588,32.697341 20.3982835,32.5352098 20.3982835,32.5352098 C20.3982835,32.5352098 20.3328197,32.6644448 20.3328197,32.9567508 C20.3328197,33.2481169 19.7163297,33.5070568 19.7163297,33.5070568 L19.8783408,33.7016142 C20.0511841,33.8172208 20.3982835,33.7345104 20.6252875,34.1555814 C20.8532334,34.5771224 20.593262,34.6744011 20.6907513,35.5818656 C20.7877696,36.4893301 20.7227767,36.1326415 21.2431904,36.4569038 C21.7621911,36.7811661 21.5676836,36.9104011 21.7621911,37.6562044 C21.9576406,38.4015377 21.8601513,38.1745541 22.0871553,38.7258 C22.3146302,39.2770459 22.1846445,39.2441497 22.1196517,39.8602481 C22.0546589,40.4763464 21.8601513,40.1840404 21.210223,40.8654612 C20.5602946,41.5454721 20.8852588,41.383341 20.6577839,41.5454721 C20.430309,41.7076033 20.2682979,41.5778984 19.7483552,41.1239311 C19.2293544,40.6709038 19.2293544,41.3189585 19.1959161,41.4162372 C19.1638906,41.5130459 19.033905,41.8053519 18.7414372,41.5778984 C18.4489695,41.3509148 18.2544619,41.4481934 18.1244763,41.675177 C18.0481803,41.8081716 18.0364063,41.9289475 17.9440976,42.0201169 C17.762777,41.7945432 17.574392,41.5680295 17.4420515,41.383341 C16.9550762,40.7028601 17.4750189,40.7352863 18.5464587,40.0548055 C19.6183695,39.3738546 18.9689121,40.6060514 19.7808516,40.9946962 C20.593262,41.383341 20.1708086,40.411494 20.2353305,39.9570568 C20.3007943,39.5035596 20.4632764,39.7305432 21.0477409,39.6981169 C21.6326764,39.6661607 21.2431904,38.4992863 20.593262,38.0453191 C19.9433337,37.5913519 20.203305,38.1745541 20.0083265,38.4992863 C19.813348,38.8230787 19.6513369,38.9523137 19.0664014,38.5312426 C18.4814659,38.1097016 18.7739336,37.8183355 18.7739336,37.2670896 C18.7739336,36.7163137 19.1313942,36.7806962 19.4558874,36.3600951 C19.7808516,35.9380842 19.3913656,35.5818656 19.2938763,35.225647 C19.1959161,34.8689585 18.9043903,35.0310896 18.9043903,35.0310896 C18.9043903,35.0310896 18.643948,35.5170131 18.6114515,35.9056579 C18.5794261,36.2952426 18.0590125,36.8460186 17.6690555,37.5913519 C17.2795694,38.3371552 16.857587,38.3037891 16.2081296,38.9523137 C15.5582012,39.6008383 15.8831654,39.5364557 16.0451765,41.1239311 C16.2010651,42.647024 16.6870985,42.5619639 17.8145829,42.8946852 C17.8988852,42.9858546 17.9846004,43.0784339 18.0590125,43.1658437 C18.416944,43.5878546 18.5794261,43.2960186 19.3588691,43.3284448 C20.1387831,43.3604011 19.6838333,43.3284448 20.2682979,43.490106 C20.8527624,43.6522372 20.593262,43.6522372 21.1122628,44.1386306 C21.6326764,44.6245541 21.2431904,43.3932973 21.1452301,42.9717563 C21.0477409,42.5502153 21.4372269,42.2588492 21.599709,41.675177 C21.7621911,41.0919749 21.599709,41.675177 22.4121194,41.8373082 C23.2240589,41.9994393 22.7045872,42.1611005 23.3215482,42.6799202 C23.9385091,43.1987399 23.6785378,42.7771989 24.9454271,42.8740077 C26.2123164,42.9717563 25.5303626,43.1009913 26.2448128,43.8143683 C26.4068239,43.9760295 26.5499965,44.0474612 26.6215829,44.1461497 C26.8278645,44.375953 26.9743338,44.668729 27.0247268,44.9163902 C27.0242558,44.9159202 27.0237849,44.9154503 27.0233139,44.9145104 C27.0543975,45.072412 27.0435653,45.2091661 26.9837531,45.2979858 C26.9225279,45.3891552 26.8099679,45.4309803 26.6314731,45.3872754 C26.5358677,45.3637781 26.4529783,45.3012754 26.3969337,45.2199749 C25.8539139,44.4234175 25.6659998,43.602423 24.0896881,43.3195158 C24.0896881,43.3195158 25.6146649,44.3345978 25.0636387,44.7998437 C24.6124566,45.1809694 24.0204566,44.9384776 23.8198266,44.8379093 C23.9950246,44.9398874 24.4297231,45.244882 24.2582927,45.6875705 C24.0468305,46.2374066 22.732845,47.0410131 22.6480717,48.4362809 C22.6480717,48.4362809 23.1571822,47.5485541 23.6229642,47.8446197 C23.9710055,48.065024 24.2229705,48.7328164 23.9074256,49.1454284 C23.7129181,49.3357563 23.4322244,49.433035 23.0954861,49.433035 C22.7535673,49.433035 22.3574878,49.3366962 21.9420988,49.1473082 C20.7962469,48.6228492 22.0377042,46.5738874 22.0377042,46.5738874 C21.9171378,46.6302809 21.8045777,46.6542481 21.6990821,46.6542481 C21.0948372,46.6542481 20.7237187,45.2843574 20.2334466,45.0536142 C19.5124029,44.7152536 18.0717284,44.6306634 18.0717284,44.6306634 C18.0717284,44.6306634 19.0748787,45.3900951 19.1700131,45.9530896 C19.2123998,46.0766852 19.2288835,46.1960514 19.2006257,46.3046087 C19.247722,46.9329257 18.3962217,46.887341 17.9883681,46.3501934 C18.0057937,46.3722809 17.6798876,46.0339202 17.7086163,46.0376798 C17.6017078,45.8699093 17.6412687,45.6053301 17.4533546,45.4173519 C17.1528805,45.1179967 17.4533546,44.9685541 17.4034326,44.3195596 C17.3530396,43.6700951 17.1528805,44.2194612 16.9032703,43.4708383 C16.6527182,42.7217454 16.4026371,42.7715596 15.8021598,42.4722044 C15.2021535,42.1728492 15.6519228,43.1714831 15.0019944,44.169647 C14.7820549,44.5075377 14.9016794,43.7697235 15.1023095,43.1211989 C15.3019976,42.4722044 15.1517605,42.3222918 15.2021535,41.873024 C15.2520756,41.4237563 15.3523906,41.1742153 15.4023126,40.6751333 C15.4522347,40.1760514 14.8013644,40.1760514 14.6515983,40.6248492 C14.5018322,41.0745869 14.101514,40.9246743 13.5010368,41.3241279 C12.9005595,41.7235814 13.6008808,41.9731224 14.1509651,42.5220186 C14.7019913,43.0713847 13.8005689,43.1714831 13.4011927,44.0202044 C13.0008745,44.8684557 13.5514297,44.5691005 13.2010336,45.1179967 C12.8506375,45.6668929 12.6000854,45.3177235 11.950157,45.2176251 C11.2997577,45.1179967 11.5498388,44.8684557 11.2498357,44.5188164 C10.9493616,44.169647 10.9997546,45.3680077 11.2498357,45.8172754 C11.4999168,46.2665432 11.2498357,46.4159858 11.1994427,46.8159093 C11.1499916,47.2148929 10.7030482,46.6951333 10.7030482,46.6951333 C10.8532852,47.3939421 10.6870354,47.5339858 10.6870354,47.5339858 C10.6870354,47.5339858 10.5895462,47.6669803 10.4430768,47.8103137 C10.2631691,47.9860732 10.0088493,48.176871 9.7639488,48.1590131 C9.5915765,48.1439749 9.43380404,47.9677454 9.30381838,47.7543902 C9.0909433,47.4047508 8.95342223,46.9554831 8.95342223,46.9554831 C8.76315335,47.050882 8.14195373,47.1458109 8.14195373,47.1458109 C7.71243587,47.0978765 7.71243587,46.4784885 8.38073175,45.907035 C9.04949859,45.3351115 8.57194255,44.4299967 8.57194255,44.4299967 C7.90458859,44.2918328 7.69359737,43.8336361 7.65262362,43.395177 C7.81887341,43.120259 7.86126004,42.604259 7.92389806,42.449647 C8.01856154,42.2123246 8.20883041,41.7381497 8.77869512,41.2169803 C9.34903078,40.694871 9.49126148,41.0271224 9.9664627,40.694871 C10.4416639,40.3635596 10.1086934,40.4580186 10.2038278,39.9843137 C10.2994332,39.5101388 10.4892312,39.5571333 10.6790291,39.2253519 C10.8692979,38.8935705 10.9639614,38.7521169 10.8692979,38.0880842 C10.8523433,37.9705978 10.8353886,37.8869475 10.818434,37.8253847 C10.8518723,37.8183355 10.8867236,37.8136361 10.9163942,37.8037672 C11.3444992,37.6609038 11.5818643,37.0452754 11.9619311,36.713494 C12.3419979,36.3812426 12.6744975,36.0499311 12.6744975,35.8596033 C12.6744975,35.7214393 12.6490655,35.4338328 12.5986725,35.1955705 L12.8647663,33.8689148 C12.8647663,33.8689148 13.1496987,33.015494 13.1972659,32.7786415 C13.2448331,32.5417891 13.5773327,31.6409038 13.7676016,31.4985104 C13.9569285,31.3561169 14.479697,31.3561169 14.6219277,31.0243355 C14.7368425,30.7578765 15.2497208,29.8193956 15.5704463,29.4354503 L15.5728011,29.4598874 L16.190233,29.3649585 C16.190233,29.3649585 17.1882027,29.412423 17.3780006,29.4598874 C17.5677985,29.5073519 17.9959035,29.4598874 18.4230665,29.5543464 C18.8507005,29.6492754 18.7084698,29.9815268 18.5657682,30.2179093 C18.4230665,30.4552317 16.5232035,30.3133082 16.2378002,30.3133082 C15.9533388,30.3133082 15.4776666,30.6925541 15.4776666,30.6925541 L16.0950986,30.6925541 C16.2853674,30.6925541 17.2828662,30.7400186 17.7105002,30.7870131 C18.1381342,30.8344776 18.4706337,30.5976251 18.7084698,30.6925541 C18.8054881,30.7310896 18.958551,30.7287399 19.1054913,30.7014831 C19.2778636,30.8537454 19.7615421,31.3232208 19.801103,31.8302918 C19.801103,31.8302918 19.801103,31.261188 19.9909009,31.261188 C20.1806988,31.261188 20.4665731,31.3561169 20.4185349,31.166729 C20.3709677,30.976871 19.7535358,31.0718 19.801103,30.8344776 C19.8486702,30.5976251 20.0860353,30.5031661 20.1336026,30.2658437 C20.1806988,30.0289913 19.6108341,28.7488601 19.6108341,28.7488601 L19.4620099,29.6041607 C19.3372049,29.5266197 19.1572972,29.455188 18.9665573,29.3630787 C18.8257395,29.0157891 18.4428469,28.1294721 18.4428469,28.1294721 C18.4428469,28.1294721 18.5502264,28.8639967 18.6378255,29.1854393 C18.2704747,28.9885322 17.8334214,28.9857126 17.5202313,28.9857126 C17.1882027,28.9857126 16.4756363,29.033177 16.190233,29.128106 C16.0235123,29.1835596 15.8261789,29.1093082 15.6900708,29.0378765 C15.6556905,28.8795049 15.6519228,28.6854175 15.8101662,28.6064667 C16.0950986,28.4640732 16.5232035,28.5120077 16.5702998,28.3221497 C16.617867,28.1322918 16.6654342,27.8479749 16.6654342,27.8479749 C16.6654342,27.8479749 16.2853674,28.2634066 16.000906,28.3508164 C16.0724924,28.3151005 16.1257111,28.2859639 16.1440787,28.2615268 C16.2104844,28.173647 15.6580453,28.2178219 15.083471,28.2615268 C14.5084257,28.3061716 14.4198847,28.7911552 14.176868,29.2319639 C13.9338514,29.6732426 13.7567694,29.7615923 13.5801585,29.9815268 C13.4035475,30.2024011 13.1821951,30.3344557 12.9170432,30.5774175 C12.8011864,30.6836251 12.7625675,30.8025213 12.7489095,30.9185978 C12.629756,31.0313847 12.5449827,31.1357126 12.5317958,31.2141934 C12.5101315,31.347188 12.4879963,31.5027399 12.4757513,31.6672208 C12.3179788,31.8429803 12.1102843,32.043647 11.9228412,32.2316251 C11.5912836,32.5624667 11.9671117,34.150412 11.9671117,34.150412 C12.0217433,33.5277344 12.3208046,32.9059967 12.5355635,32.5286306 C12.6146852,32.8839093 12.7291291,33.3035705 12.579834,33.4891989 C12.3900361,33.7265213 12.2944307,34.4375486 12.3419979,34.674871 C12.3537719,34.7322044 12.3679008,34.8266634 12.3829716,34.9352208 C12.1691546,35.0423683 11.7952103,35.4686087 11.5818643,35.5757563 C11.296461,35.7176798 11.0115286,36.0499311 10.8217307,36.3337781 C10.6319328,36.618565 9.82423201,37.3291224 9.39612704,37.4240514 C8.96896399,37.5194503 8.11369597,36.8554175 7.59092753,36.902412 C7.06863004,36.9503464 7.11619726,38.0406197 7.11619726,38.0406197 C7.11619726,38.0406197 7.40065865,37.7088383 7.59092753,37.4240514 C7.73739688,37.2055268 8.27523613,37.4621169 8.66801891,37.6148492 C8.59313586,37.6303574 8.52437533,37.6458656 8.44666651,37.6609038 C7.97099432,37.7558328 7.87585988,38.2300077 7.73362918,38.5617891 C7.59092753,38.8935705 6.83079395,38.846576 6.40315994,38.846576 C6.19405256,38.846576 6.06453785,39.0397235 5.98682903,39.2371005 C5.91948138,39.4062809 6.08243443,39.5754612 6.25245192,39.5096689 L6.49782341,39.4156798 C6.49782341,39.4156798 6.64099603,39.6050678 7.21086074,39.5101388 C7.7811964,39.4156798 7.59092753,39.2253519 7.92389806,39.130423 C8.25592667,39.0359639 7.92389806,39.130423 8.49376276,39.7944557 C8.70098629,40.0360077 8.35153207,40.1262372 8.20883041,40.5054831 C8.06612875,40.8851989 7.87585988,40.8851989 7.16376448,41.5012973 C6.56517106,42.019177 6.7860525,41.968423 6.75638186,42.286106 C6.75496897,42.2870459 6.47427528,42.5262481 6.03062855,42.5262481 C5.78949572,42.5262481 5.5003247,42.4552863 5.18148304,42.2381716 C4.27393818,41.6183137 5.18148304,40.9514612 5.13344486,39.7601497 C5.08587764,38.5693082 5.51492454,37.9499202 6.32733496,37.2351333 C6.78840732,36.8286306 6.89484486,36.5457235 6.90143833,36.3770131 C7.63566897,36.3074612 7.80804127,35.9803792 8.04870314,35.7938109 C8.31809373,35.5842153 9.21716126,35.3454831 9.21716126,35.3454831 C8.76833394,35.0456579 7.62813357,35.5245322 7.32907234,35.7938109 C7.11431341,35.9864885 6.58071282,36.0104557 6.29248373,36.008106 C6.18369138,35.8943792 6.0664217,35.7256689 5.94538432,35.4718984 C5.46782828,34.4713847 7.23440886,33.7565978 7.37805245,33.3280077 C7.44210336,33.1358 7.34225929,32.9558109 7.21368651,32.8129475 C7.20144149,32.5023137 7.27915031,31.8453301 7.95874929,30.977341 C7.95874929,30.977341 7.17129988,31.4712536 6.95701191,32.585494 C6.89531582,32.542259 6.85245822,32.5178219 6.85245822,32.5178219 C6.12340817,32.2626415 6.09044079,31.4811224 6.11540181,31.1258437 C6.26516791,30.9181279 6.46815277,30.4115268 6.54586159,30.2179093 C6.64099603,29.9815268 6.97302464,29.8861279 6.97302464,29.5543464 C6.97302464,29.223035 6.59389978,28.9857126 6.54586159,28.4170787 C6.49782341,27.8479749 6.64099603,27.8009803 6.49782341,27.468729 C6.35606368,27.1369475 6.1657948,27.184412 6.07066037,26.9000951 L6.11822759,26.4733847 C5.80597941,26.9019749 5.2398824,27.2177781 4.71805588,27.2539639 C4.62763107,27.2600732 4.53626433,27.2614831 4.44631048,27.2483246 C4.42558813,27.245035 4.40486577,27.2389257 4.38414342,27.2337563 C4.43547834,27.2046197 4.48728422,27.1750131 4.53579337,27.1477563 C4.87158968,26.9564885 5.13721256,26.8056361 5.29263021,26.694259 C5.60205261,26.4729148 5.92136523,26.0640623 6.09044079,25.731341 C6.12858876,25.6556798 6.24727133,25.3262481 6.35747657,24.9564011 C6.21006529,25.1453191 5.74475427,26.1040077 5.16594128,26.5170896 C5.01900096,26.6218874 4.7580877,26.7699202 4.42747198,26.9578984 C4.33610524,27.0100623 4.24379658,27.0735049 4.15101695,27.141177 C3.9503869,27.0241607 3.79449829,26.8291333 3.7403376,26.6035596 C3.68806075,26.3855049 3.72385391,26.1557016 3.78555,25.9399967 C3.80909813,25.8586962 3.83735588,25.7759858 3.89151658,25.7111333 C4.18398433,25.361494 4.59843139,25.1363902 4.59843139,24.5912536 C4.7076947,24.604412 4.80612588,24.6025322 4.88289278,24.5771552 C5.31052679,24.4347617 5.69012261,24.5771552 5.88039149,24.0555158 C6.07066037,23.5338765 5.59545914,23.2495596 6.49782341,23.0127071 C7.40065865,22.7753847 9.68105939,22.9652426 9.44369426,21.2584011 C9.44369426,21.2584011 9.34903078,21.8749694 8.20883041,22.2067508 C7.06863004,22.5385322 6.21289106,21.637647 5.40566122,22.8228492 C5.40566122,22.8228492 5.78572801,23.4394175 5.12025791,23.7237344 C4.73359764,23.8896251 4.18681011,23.8618984 3.77754364,23.7914066 C3.17565348,22.9008601 3.88021348,21.835494 4.04693422,21.6071005 C4.19010684,21.4712863 4.35824048,21.336412 4.54568358,21.2358437 C4.63846321,21.1860295 4.7806939,21.1282262 4.94505984,21.061494 C5.82434695,20.7052754 7.45529031,20.0426525 7.67993945,18.1332645 C7.14115828,19.7559858 5.66045197,20.3622153 4.80188722,20.7104448 C4.6271601,20.7809366 4.47598112,20.8420295 4.36530492,20.9017126 C4.09638529,21.0464557 3.85572342,21.2428929 3.67251899,21.4304011 C3.67581572,21.4369803 3.67251899,21.4304011 3.66780936,21.4233519 C3.54583006,21.2475923 3.36686428,20.9895923 3.36686428,20.4148492 C3.36686428,19.4223246 4.30455075,19.3090678 4.73359764,19.3090678 C4.86028657,19.3090678 4.94270502,19.3189366 4.94270502,19.3189366 C4.7995324,17.2699749 7.04366903,16.7459858 7.66439769,16.3173956 C8.28512635,15.8883355 8.18952095,15.316412 8.18952095,15.316412 C7.33001427,13.648576 9.66975629,13.6011115 10.1953505,13.4103137 C10.7204738,13.2199858 11.3412024,12.6959967 12.8214378,11.5526197 C13.3767026,11.1235596 13.9785928,10.9891552 14.5145482,10.9891552 C15.4074932,10.9891552 16.1162919,11.3613519 16.1162919,11.3613519 C16.6616665,11.1442372 17.1345129,11.0577672 17.5423665,11.0577672 C17.8338924,11.0577672 18.090096,11.1038219 18.316158,11.1752536 C17.0601009,11.7974612 16.9781534,13.3764776 17.007824,14.0710568 C17.0563332,15.1697891 16.6776793,15.7558109 16.6734406,15.7619202 C16.6918081,15.7417126 17.2489568,15.2285322 17.1980929,14.0625978 C17.1608868,13.2143464 17.2998208,11.7584557 18.5700068,11.2711224 C18.7767594,11.3637016 18.9519575,11.4778984 19.0984268,11.5977344 C18.1706306,12.367035 18.4908851,13.8863683 18.4908851,14.3290568 C18.4908851,14.7881934 17.9502201,15.4005322 17.8696855,15.4893519 C17.9911938,15.4259093 18.9670283,15.8643683 19.1728389,12.8205322 C19.2453672,12.616576 19.575041,12.4431661 19.687601,12.2956033 C19.6946654,12.3087617 19.6979622,12.314871 19.6979622,12.314871 C20.165628,12.0347836 20.6045651,11.928576 21.0011156,11.928576 C22.2237344,11.928576 23.0403835,12.934259 23.0403835,12.934259 C23.248549,12.8802153 23.4444694,12.8562481 23.6304996,12.8562481 C24.5992696,12.8562481 25.2816944,13.510412 25.7625471,14.0301716 Z M26.2853156,19.4932863 C26.5909703,19.8579639 26.9319472,20.0064667 26.9060442,19.5496798 C26.8763736,19.0111224 26.2462257,18.0538437 26.6959949,17.784565 C27.1457642,17.5157563 27.4457673,18.532718 27.7452995,19.220718 C28.0448317,19.9082481 27.9558198,19.9383246 28.1051149,20.2080732 C28.2035461,20.3843027 28.2407522,20.5704011 28.3118675,20.7221934 C28.2713647,20.7395814 28.2454618,20.7489803 28.2454618,20.7489803 C28.5798452,21.3674284 28.4362016,21.7964885 28.4362016,21.7964885 C27.8338405,22.3547836 28.5148524,22.4426634 28.3048031,22.8613847 C28.0952247,23.280106 27.2554985,22.5996251 26.6785693,22.6517891 C26.1011692,22.704423 26.783594,23.4897016 26.783594,24.1170787 C26.783594,24.2340951 26.7633426,24.3200951 26.7350848,24.3952863 C26.6762145,24.2538328 26.6145184,24.1104995 26.5471708,23.9605869 C26.167104,23.1076361 25.8826426,22.7753847 25.5972393,21.9224339 C25.4060285,21.3509803 25.1300444,20.8260514 24.8399315,20.4388164 C25.1964501,20.5534831 25.8256561,20.8716361 26.2909671,21.7447945 C26.2909671,21.7447945 26.4171851,20.2301607 24.8427572,19.1027617 C25.3151327,19.2503246 26.0875113,19.6018437 26.4011724,20.3758437 C26.4011724,20.3758437 26.4007014,19.9815596 26.2853156,19.4932863 Z M26.9559663,34.3285213 C26.971508,34.3947836 26.9889337,34.4492973 27.0073012,34.5000514 C26.9889337,34.4497672 26.971508,34.3947836 26.9559663,34.3285213 Z M27.4259869,35.9545322 C27.4636639,35.922106 27.500399,35.8694721 27.5361922,35.8093191 C27.6600553,36.1443902 27.8409049,36.5217563 28.0066838,36.8540077 C28.0942828,37.0288273 28.1286631,37.2050568 28.1376114,37.3897454 C28.0128063,37.3018656 27.8470274,37.3046852 27.663823,37.2346634 C27.3553425,37.1162372 27.2837562,37.1162372 26.9988239,36.7369913 C26.7138915,36.3577454 27.236189,36.120423 27.4259869,35.9545322 Z M26.8956831,41.5299639 C26.8909734,41.5299639 26.8867348,41.5280842 26.8829671,41.5280842 C26.9225279,41.5285541 26.9625598,41.5280842 27.0040045,41.5233847 C26.9667984,41.5276142 26.9310053,41.5299639 26.8956831,41.5299639 Z M22.9363008,33.5667399 C23.022016,34.1273847 23.1840271,34.9596579 23.4788497,35.8422153 C23.8904709,37.0739421 24.9124597,37.1458437 25.3353841,37.1195268 C25.1955082,37.4047836 25.4309895,37.9231333 25.4545376,38.2060404 C25.4616021,38.2920404 25.4192154,38.3423246 25.3608161,38.3742809 C25.2501399,38.3155377 25.1380508,38.2361169 25.0429163,38.1092317 C24.6534303,37.5913519 24.1984805,37.8183355 23.613545,37.6886306 C23.0295514,37.5589257 22.8990947,37.2670896 22.7045872,36.7806962 C22.5096087,36.2947727 22.1196517,35.9380842 21.7621911,35.5818656 C21.4296915,35.2496142 21.5177615,35.2223574 21.4786716,34.8271333 C21.6425666,34.8595596 21.9510471,34.6654721 22.1761672,34.2481607 C22.4394353,33.7603574 22.6160462,33.6588492 22.9363008,33.5667399 Z M25.097077,31.234871 C25.0052393,31.5417454 25.0829482,31.9928929 25.0000587,32.2828492 C24.8950341,32.6489366 24.1080556,32.6494066 24.1080556,32.6494066 C23.8170008,32.4421607 23.8221814,31.8453301 23.8108783,31.5267071 C23.9074256,31.4092208 24.0218695,31.278576 24.1721066,31.1192645 C24.4612776,30.8109803 24.6863977,30.9383355 25.097077,31.234871 Z M21.2738029,27.5161934 C21.2738029,27.5161934 20.7369056,26.7882481 20.630939,26.5405869 C20.681332,26.7830787 20.7986017,27.5161934 20.7986017,27.5161934 L20.2758333,26.6627727 C20.2758333,26.6627727 20.4665731,27.184412 20.4665731,27.468729 C20.4665731,27.6139421 20.3055039,27.6599967 20.1477314,27.6708055 C20.1138221,27.6073628 20.0822676,27.5406306 20.053068,27.4720186 C20.0168038,27.2205978 19.8481992,26.8042262 19.7059685,26.5208492 C19.5156997,26.1416033 19.6108341,25.7618874 19.9433337,25.1457891 C20.2169629,24.638718 19.8481992,24.2918984 19.6824204,23.9474284 C19.6843043,23.8966743 19.6965493,23.8510896 19.7285748,23.8299421 C19.7963934,23.7838874 19.8806957,23.8092645 19.9527529,23.7904667 C20.0681388,23.8557891 20.1929438,23.9126525 20.3120974,23.9713956 C20.4684569,24.0479967 20.6342358,24.140106 20.80755,24.1918 C20.8254466,24.1969694 20.844756,24.2016689 20.8626526,24.2068383 C21.1786685,24.3539311 21.5851092,24.5574175 21.7452365,24.699341 C22.0240463,24.9465322 22.2406891,25.1011443 22.8595339,24.8849694 C23.210872,24.7627836 23.1830852,24.510423 23.0940732,24.3153956 C23.3507478,24.4638984 23.4816754,24.415494 23.6493381,24.6246197 C23.6493381,25.2881825 23.5071074,25.335647 23.2217041,25.7618874 C22.9367717,26.1885978 22.8892045,26.3784557 22.8416373,26.7577016 C22.7945411,27.1369475 22.556234,26.9945541 22.6994066,27.3742699 C22.8416373,27.7530459 22.366907,28.2746852 22.366907,28.2746852 C22.0815037,27.7055814 21.084005,26.5678437 21.084005,26.5678437 L21.2738029,27.5161934 Z M26.0244023,36.2393191 C25.7870372,36.2628164 25.7870372,36.4282372 25.6448065,36.618565 C25.5190595,36.7858656 25.4851502,36.8244011 25.3810675,37.0278874 C24.3082147,36.4738219 24.1739904,35.3539421 24.4754064,34.9526087 C24.7900094,34.5334175 25.3669386,35.3186962 26.2594126,35.6852536 C26.3851596,35.7369475 26.4859456,35.7726634 26.5711899,35.7971005 C26.6116926,36.1678874 26.2598836,36.2158219 26.0244023,36.2393191 Z M26.003209,46.2468055 L26.0017961,46.2468055 C26.0074477,46.2468055 26.0130992,46.2453956 26.0196927,46.2453956 C26.0135702,46.2453956 26.0083896,46.2468055 26.003209,46.2468055 Z M28.6914633,41.7461388 C28.6862827,41.7466087 28.6820441,41.7489585 28.6773344,41.7489585 C28.6754506,41.7489585 28.6730958,41.7475486 28.6712119,41.7475486 C28.6778054,41.7475486 28.6848699,41.7466087 28.6914633,41.7461388 Z M23.6304996,12.3510568 C23.4934495,12.3510568 23.3545155,12.3618656 23.2141687,12.3834831 C22.8505856,12.0357235 22.0593685,11.4238546 21.0011156,11.4233847 C20.7048801,11.4233847 20.3271682,11.6151224 20.0549518,11.592565 C20.0507131,11.5920951 20.0460035,11.592565 20.0417649,11.5920951 C20.0318746,11.5911552 20.0210425,11.5859858 20.0102104,11.5836361 C19.9654689,11.5728273 19.9183727,11.5507399 19.8689216,11.5192536 C19.8161738,11.4858874 19.7624841,11.4445322 19.7083234,11.3998874 C19.6235501,11.3298656 19.5387768,11.2542044 19.4620099,11.1978109 C19.435636,11.1780732 19.4097331,11.1606852 19.385243,11.1465869 C19.3301404,11.1151005 19.2740959,11.085024 19.2189933,11.0549475 C18.693399,10.7706306 18.1513211,10.5530459 17.5423665,10.5530459 C17.0982488,10.5530459 16.6254024,10.6409257 16.1337175,10.8152754 C15.825708,10.6879202 15.221463,10.4844339 14.5145482,10.4844339 C13.7595952,10.4844339 13.0861187,10.7095377 12.5120154,11.1531661 C12.2755922,11.3355049 12.0608332,11.5023355 11.8658547,11.6541279 C10.9130975,12.3947617 10.3889161,12.8026743 10.0225072,12.9356689 C9.96457885,12.9563464 9.80586447,12.9873628 9.66551763,13.0146197 C8.9991056,13.1429148 7.99218763,13.3374721 7.62295298,14.095494 C7.43221314,14.4869585 7.45434838,14.9404557 7.68841678,15.4437672 C7.67993945,15.5302372 7.63095934,15.7262044 7.37663956,15.9019639 C7.28480186,15.9649366 7.1006555,16.0518765 6.90567699,16.1439858 C6.08243443,16.5331005 4.61679893,17.2253301 4.44583952,18.8179749 C4.19999706,18.842412 3.91506471,18.9044448 3.6522676,19.0430787 C3.14174417,19.3132973 2.86057952,19.8001607 2.86057952,20.4148492 C2.86057952,21.172871 3.0847577,21.5845432 3.33907749,21.8072973 C3.13326685,22.222729 2.93875931,22.8195596 3.0772223,23.435188 C3.14833765,23.7514612 3.29669086,24.0338984 3.51615941,24.2824995 C3.66121588,24.4460404 3.83641396,24.5950131 4.04410845,24.7275377 C4.00596048,24.8309257 3.91977433,24.9263246 3.75493743,25.0884557 C3.67063514,25.1716361 3.57502973,25.2651552 3.48507588,25.3727727 C3.36827717,25.5128164 3.31411647,25.6646087 3.27691043,25.7947836 C3.19496294,26.0800404 3.17141482,26.3338109 3.20014353,26.5669038 C3.19778872,26.5842918 3.19355006,26.6016798 3.19119524,26.6181279 C3.13467974,27.0058328 3.17424059,27.4724885 3.50532728,27.683024 C3.69135749,27.8009803 3.92495492,27.8070896 4.1453654,27.8084995 C4.34222775,27.8103792 4.53861914,27.812259 4.73548149,27.8141388 C4.96013064,27.8160186 5.19749577,27.8216579 5.38823561,27.9400842 C5.59781395,28.070729 5.70849015,28.311341 5.79891497,28.5411443 C5.98635807,29.0157891 6.14130475,29.5289694 6.04899609,30.0304011 C6.04852513,30.0341607 6.04711224,30.0374503 6.04664128,30.0407399 C5.83988871,30.5548601 5.73627695,30.7470678 5.68635491,30.8170896 L5.59828491,30.9388055 L5.58745278,31.088718 C5.5229309,32.0079311 5.90676539,32.7151989 6.61791887,32.9938765 C6.62780908,32.9999858 6.63958315,33.0079749 6.65229913,33.0169038 L6.74507876,33.0826962 L6.81996181,33.1654066 C6.82372951,33.170106 6.82749721,33.1738656 6.83079395,33.1776251 C6.75167224,33.2485869 6.62875101,33.3439858 6.53173272,33.419647 C5.98353229,33.8458874 4.96248545,34.640565 5.46782828,35.698882 C5.60252358,35.9813191 5.74710908,36.2017235 5.90912021,36.3718437 L6.06406689,36.5349148 L6.1356532,36.5353847 C6.16438192,36.5555923 6.19216871,36.5786197 6.22136839,36.5955377 C6.16391095,36.6622699 6.08526021,36.7435705 5.97740978,36.8384995 C5.08870342,37.6204885 4.54898032,38.3850896 4.60408294,39.7812973 C4.61915374,40.1455049 4.51695486,40.4617781 4.41852369,40.7677126 C4.2409708,41.3175486 3.99842508,42.0699311 4.88242182,42.673341 C5.25212743,42.9261716 5.63878769,43.0539967 6.03062855,43.0539967 C6.35841849,43.0539967 6.62074464,42.9642372 6.80630389,42.8725978 C6.8628194,42.8942153 6.92734127,42.914423 6.99515988,42.9327508 C7.04319806,42.9459093 7.09264913,42.9585978 7.14680983,42.9684667 C7.13927443,43.0507071 7.13550673,43.1381169 7.13597769,43.2274066 L7.10913282,43.2720514 L7.12561651,43.4449913 C7.17930624,44.0173847 7.45058068,44.4586634 7.88716298,44.7223027 C7.9761749,44.7758765 8.06989646,44.8247508 8.17303726,44.8632863 C8.22343025,45.0479749 8.24886223,45.3243027 8.03645811,45.5061716 C7.46753533,45.992565 7.20709304,46.5964448 7.35733009,47.0814284 C7.45905801,47.4108601 7.73080341,47.6312645 8.08355437,47.6702699 L8.15325683,47.678259 L8.22201736,47.6674503 C8.31526795,47.6533519 8.46785982,47.6284448 8.62987094,47.5946087 C8.69109608,47.7341825 8.76550816,47.8873847 8.85216528,48.0283683 C9.09989158,48.4358109 9.39094645,48.6566852 9.72485891,48.6853519 C10.0813776,48.710729 10.4477864,48.5443683 10.8132534,48.1876798 C10.8264403,48.1745213 10.8377434,48.1623027 10.8504594,48.1496142 C10.9145103,48.1923792 10.9795032,48.2323246 11.044496,48.2642809 C11.0251866,48.3032863 10.9983417,48.3432317 10.9625485,48.3827071 C10.6380553,48.7469148 10.0827905,49.7897235 10.2193696,50.4025322 C10.2716464,50.6346852 10.4129352,50.8109148 10.616862,50.8978546 C10.7200028,50.9420295 10.8320919,50.9645869 10.9498325,50.9645869 C11.5140457,50.9645869 12.1748062,50.3917235 12.3123272,49.7845541 C12.315624,49.811341 12.3198626,49.8381279 12.3255142,49.8658546 C12.5233185,50.8532098 12.9462429,51.0604557 13.2660264,51.0604557 C13.4148506,51.0604557 13.6978991,51.0078219 13.9197225,50.653953 C14.0548887,50.4373082 14.0991592,50.224423 14.1340104,50.0528929 C14.1811067,49.8230896 14.2046548,49.708423 14.4147041,49.5509913 C14.567767,49.4367945 14.8630605,49.3272973 15.1484638,49.2215596 C15.8111081,48.9757781 16.5627644,48.6980404 16.6654342,47.979494 C16.6786212,47.8873847 16.6889824,47.7966852 16.6998145,47.7059858 C16.7299561,47.4479858 16.7535042,47.1777672 16.8806641,46.9456142 C17.0064111,46.715341 17.272034,46.3943683 17.5635598,46.5207836 C17.6294946,46.5489803 17.6860101,46.5959749 17.7406418,46.6434393 C18.0863283,46.9442044 18.4776982,47.162259 18.9481898,47.076729 C19.1328071,47.0428929 19.3131858,46.9864995 19.499216,46.9606525 C19.6645238,46.938565 19.8307736,46.9597126 19.9946686,46.9249366 C20.2758333,46.8647836 20.4967147,46.7646852 20.669087,46.6528383 C20.8108467,46.8102699 20.9912254,46.9606525 21.2121068,47.0565213 C21.2191713,47.0598109 21.2252938,47.0640404 21.2323582,47.0668601 C21.0284314,47.5758109 20.8494657,48.2487727 21.0204251,48.8028383 C21.1329851,49.1675158 21.3788276,49.4447836 21.7315785,49.6059749 C22.2058378,49.8230896 22.6777423,49.9382262 23.0954861,49.9382262 C23.65028,49.9382262 24.0943977,49.7384995 24.3736785,49.3898 C24.5469928,49.1726852 24.6581399,48.899177 24.6901654,48.5782044 C24.7772934,47.7083355 24.8385186,47.6105869 25.2751009,47.248259 C25.5190595,47.0447727 25.6919028,46.8746525 25.8138821,46.7360186 C25.8736943,46.7458874 25.9377452,46.7519967 26.003209,46.7519967 C26.2754254,46.7519967 26.5113776,46.6523683 26.6875176,46.4639202 C26.8198581,46.3219967 26.9041604,46.1354284 26.9503147,45.9098546 C27.1443513,45.8675596 27.3101301,45.760412 27.4231611,45.5917016 C27.5611532,45.3863355 27.6025979,45.1170568 27.5423147,44.8120623 C27.4834443,44.5169366 27.3289686,44.2001934 27.1245709,43.9323246 C27.148119,43.5281716 27.0365009,43.120259 26.5419902,42.4966415 C26.4840618,42.3556579 26.4275463,42.2297126 26.3752694,42.1291443 C26.3253474,42.0342153 26.2843737,41.9515049 26.2476386,41.8758437 C26.4412042,41.9726525 26.657847,42.0346852 26.8956831,42.0346852 C26.9498438,42.0346852 27.0058883,42.0313956 27.0628748,42.0248164 L27.5098183,41.9721825 L27.5098183,41.5233847 C27.5098183,41.5144557 27.5098183,41.4970678 27.5098183,41.4735705 C27.8352534,41.839188 28.204959,42.2541497 28.6773344,42.2541497 C28.884087,42.2541497 29.073414,42.174259 29.224122,42.0238765 C29.6602333,41.5887071 29.6753041,41.2047617 29.6564656,41.0440404 C29.6432787,40.8809694 29.5533248,40.4411005 29.0140727,39.9565869 C28.934009,39.8846852 28.8577131,39.8217126 28.7865978,39.7624995 C28.4672851,39.4983902 28.4098277,39.4509257 28.4625755,38.9556033 C28.4865946,38.7220404 28.5219168,38.5119749 28.5553551,38.3084885 C28.6509605,37.7332754 28.7404434,37.1895486 28.4597497,36.6279639 C27.9897291,35.6913628 27.8917689,35.3271552 27.8917689,35.1861716 C27.8917689,34.7961169 27.6996162,34.6048492 27.5960044,34.502871 C27.5314825,34.4384885 27.4923926,34.399953 27.449535,34.2143246 C27.3186074,33.6499202 27.336975,33.3773519 27.4226902,33.1005541 C27.4721412,33.0549694 27.5908238,32.9731989 27.6803067,32.9116361 C28.1771722,32.5704557 28.9895826,32.0116907 29.0781236,30.7856033 C29.5358992,30.3114284 30.7128347,28.8306306 30.318639,26.4541169 C30.6280614,26.3441497 31.0024766,26.1495923 31.2351321,25.8121716 C31.4409428,25.5132863 31.5021679,25.154718 31.4122141,24.776882 C31.1790876,23.8022153 30.6728028,22.429035 28.9712151,21.5018328 C28.9679184,21.3533301 28.9457831,21.1747508 28.8854999,20.9736142 C29.3767139,20.6075268 29.8410829,19.8885104 29.5481442,18.7202262 C29.1563034,17.1562481 28.8859709,16.7135596 27.7316416,16.5777454 C27.6374491,16.5664667 27.5441985,16.5326306 27.4537737,16.4903355 C27.0624038,16.3070568 26.7256656,15.8864557 26.6182861,15.6571224 C26.6762145,15.2816361 26.7426202,14.345035 26.1341366,13.6875814 C25.9975575,13.5395486 25.8515591,13.3910459 25.6961414,13.2491224 C25.3311454,12.9164011 24.9101049,12.6217454 24.4061749,12.4666634 C24.1673969,12.3933519 23.9097804,12.3510568 23.6304996,12.3510568 Z" id="Fill-10" fill="#020303"></path>
                    <path d="M4.95933,31.1483541 C5.00454241,31.1502339 5.05069674,31.1539934 5.09449626,31.1539934 C5.1015607,31.1539934 5.10768321,31.1530536 5.11568957,31.1530536 C5.06529658,31.1535235 5.01254877,31.1507038 4.95933,31.1483541" id="Fill-12" fill="#020303"></path>
                    <path d="M15.6675587,26.1414153 C15.1452613,26.3308033 15.097694,27.0423005 15.097694,27.0423005 C15.097694,27.0423005 15.3350592,26.7579836 15.4777608,26.7100492 C15.4777608,26.7100492 15.4777608,27.0892951 15.8578276,27.0423005 C16.2378944,26.9943661 16.2854616,26.7579836 16.2854616,26.7579836 C16.2854616,26.7579836 16.1903272,25.9515574 15.6675587,26.1414153" id="Fill-14" fill="#020303"></path>
                    <path d="M20.6089451,26.4734787 C20.6089451,26.4871071 20.6197772,26.513424 20.6310803,26.5406809 C20.6178934,26.4748885 20.6089451,26.4429322 20.6089451,26.4734787" id="Fill-16" fill="#020303"></path>
                    <path d="M7.68488456,18.102765 C7.68394263,18.1135738 7.68111686,18.1225027 7.68017493,18.1333115 C7.68535552,18.1168634 7.69241996,18.1022951 7.69712958,18.085377 L7.68488456,18.102765 Z" id="Fill-18" fill="#020303"></path>
                    <path d="M20.4206071,14.9822809 C20.1224878,15.3911333 19.340219,15.9489585 19.340219,15.9489585 C19.340219,15.9489585 20.6438434,16.2464339 21.1656699,16.3949366 C21.6865545,16.5439093 22.0223508,16.8413847 22.0223508,16.8413847 C22.0223508,16.8413847 22.4325592,16.0232098 22.3572052,15.1683792 C22.2832641,14.3130787 21.2768171,14.7219311 21.2768171,14.7219311 C21.6493485,13.8299749 23.214828,13.9042262 23.214828,13.9042262 C21.9107327,13.1978984 20.7177845,14.5734284 20.4206071,14.9822809" id="Fill-20" fill="#020303"></path>
                    <path d="M19.0712052,18.4935716 C18.6101329,18.5856809 18.1471767,18.5922601 17.7793549,18.6900087 C17.4595713,18.7750689 17.2071354,18.842271 17.0521887,18.8667082 C16.4408793,18.9635169 15.4697545,18.575812 15.3600202,18.6265661 C15.3958133,18.6477137 15.979336,18.9592874 16.5788713,19.0462273 C16.6400964,19.392577 16.7375857,20.3070907 16.1338117,20.6416918 C16.1667791,20.7389705 16.9876668,20.4226973 16.8298944,19.0669049 C16.8430813,19.0673749 16.8557973,19.0697246 16.8689842,19.0697246 C16.9410415,19.0697246 17.0126278,19.0645552 17.0818593,19.0537464 C17.2462253,19.0278995 17.5028999,18.9597574 17.827864,18.8732874 C18.885646,18.5922601 20.6517556,18.1232546 21.5173848,18.5560743 C20.9192623,18.1312437 19.8525321,18.1787082 19.0712052,18.4935716" id="Fill-22" fill="#020303"></path>
                    <path d="M21.5246847,18.5603508 L21.5317491,18.5608208 C21.5270395,18.5594109 21.5218589,18.558471 21.5176202,18.5561213 C21.5199751,18.5580011 21.5223299,18.558941 21.5246847,18.5603508" id="Fill-24" fill="#020303"></path>
                    <path d="M15.3495177,18.6271301 C15.3509306,18.6261902 15.358466,18.6271301 15.3598789,18.6266601 L15.358466,18.6257202 L15.3495177,18.6271301 Z" id="Fill-26" fill="#020303"></path>
                    <path d="M16.500927,36.5981694 C16.9017161,35.612224 16.0473901,34.520071 16.0473901,34.520071 L16.0205452,34.5994918 C16.0205452,34.5994918 16.500927,35.6117541 15.7266645,36.7842678 C15.4327839,37.264082 15.192593,37.3171858 14.4183305,37.7438962 C13.6440681,38.1701366 13.6176942,38.2763443 12.6828335,38.889153 C11.7484438,39.5024317 11.8821971,39.1292951 11.7752886,39.448388 C11.7555082,39.508071 11.7267795,39.5494262 11.6942831,39.5851421 C11.6603738,39.353459 11.6542512,38.9337978 11.9566092,38.5479727 C12.1318073,38.3252186 12.3795336,38.2537869 12.6423307,38.1785956 C13.0360554,38.0653388 13.4825279,37.9375137 13.6045072,37.2269563 L13.5993266,37.2161475 C13.4015224,37.7753825 12.978598,37.8844098 12.5891119,37.9962568 C12.3093602,38.0766175 12.0197182,38.1597978 11.8068431,38.4309563 C11.4380794,38.9013716 11.5600587,39.3835355 11.657548,39.6236776 C11.5073109,39.7486831 11.2525202,39.7905082 10.8941177,40.248235 C10.4132649,40.8605738 11.0815608,40.7271093 11.5619426,41.0471421 C12.0423244,41.3667049 11.5619426,41.4465956 11.5883165,41.7934153 C11.6151614,42.1392951 11.5883165,42.1923989 11.4018153,42.5655355 C11.2143722,42.9386721 10.4132649,42.965459 9.95972794,42.9386721 C9.73084013,42.9255137 9.33099292,43.0547486 9.07337639,43.2934809 C9.00555778,43.3564536 9.02204147,43.3729016 9.08232468,43.3414153 C9.92817345,42.896377 10.5672696,43.7892732 11.5350977,43.2051311 C12.6828335,42.5124317 12.1219171,41.6862678 12.0955432,41.4202787 C12.0686983,41.1533497 12.2825153,41.1002459 12.7628971,40.248235 C13.2437499,39.3952842 13.9643226,39.7411639 14.7122112,39.4751749 C15.4596288,39.2091858 14.979247,38.7824754 15.2194379,38.3031311 C15.4596288,37.8233169 16.1001379,37.5841148 16.500927,36.5981694" id="Fill-28" fill="#020303"></path>
                    <path d="M18.2870525,33.0538415 C18.0270812,32.2431858 18.5795203,31.854541 18.4490637,31.7572623 L18.4490637,31.6275574 C18.4490637,31.6275574 17.8975665,32.4053169 17.9295919,33.118694 C17.9620884,33.8316011 18.2870525,34.0261585 18.5465529,34.4476995 C18.8065242,34.8687705 18.8715171,34.933623 18.9360389,34.6742131 C19.0010318,34.4148033 18.5465529,33.8640273 18.2870525,33.0538415" id="Fill-30" fill="#020303"></path>
                    <path d="M15.0935496,23.7003781 C14.4398535,24.3244656 12.0016803,24.4546404 12.0016803,24.4546404 C14.6126968,24.5227825 15.0045376,23.9673071 15.0935496,23.7003781" id="Fill-32" fill="#020303"></path>
                    <path d="M5.45167427,21.7223781 C5.45167427,21.7223781 7.12170752,22.317329 8.59299458,21.4046951 C9.42754024,20.9291104 9.07007965,19.3815803 9.07007965,19.3815803 C8.99048698,21.3652197 5.45167427,21.7223781 5.45167427,21.7223781" id="Fill-34" fill="#020303"></path>
                    <path d="M12.4896917,16.9215104 C12.927216,17.0004612 12.3305064,16.0488219 11.5355216,16.0488219 C10.7400658,16.0488219 10.3421024,16.8825049 10.3421024,16.8825049 C10.3421024,16.8825049 10.700034,16.7626689 11.2176219,16.5248765 C11.7342678,16.2866142 12.0521675,16.8420896 12.4896917,16.9215104" id="Fill-36" fill="#020303"></path>
                    <path d="M19.0507654,17.8737607 C19.408226,17.8737607 19.4477869,17.6354984 19.2890725,17.5166022 C19.1298871,17.3972361 18.8915801,17.3182852 18.5336485,17.1199683 C18.175717,16.9216514 18.0165316,17.6354984 17.8573463,17.6754437 C17.6986319,17.7149191 17.3011395,17.9527115 17.3011395,17.9527115 C17.3011395,17.9527115 18.6928339,17.8737607 19.0507654,17.8737607" id="Fill-38" fill="#020303"></path>
                    <path d="M10.5014291,32.2364656 C10.5014291,32.2364656 9.74600513,33.8634164 9.46766625,34.2205749 C9.18932738,34.5772634 9.8255978,34.9743672 9.8255978,34.9743672 C9.8255978,34.9743672 10.263122,34.6172087 10.3818046,34.4588372 C10.5014291,34.2999956 11.257324,32.5541486 11.257324,32.5541486 L10.024344,34.0222579 L10.5014291,32.2364656 Z" id="Fill-40" fill="#020303"></path>
                    <path d="M8.51316642,29.6577344 C8.55272728,29.5383683 8.55272728,28.6262044 8.55272728,28.6262044 L8.19526669,28.7451005 C8.19526669,28.7451005 8.43404471,26.8803574 8.27485936,26.8803574 C8.11567402,26.8803574 7.876896,27.1580951 7.91692781,27.3169366 C7.95695963,27.4753082 8.15523487,28.5068383 7.83733514,28.6661497 C7.51943541,28.8245213 7.04187937,28.7850459 7.04187937,28.7850459 C7.04187937,28.7850459 6.96275766,29.1816798 7.24109653,29.2611005 C7.51943541,29.3400514 7.95695963,29.5383683 7.99652049,29.6577344 C8.03655231,29.7771005 8.47360557,29.7766306 8.51316642,29.6577344" id="Fill-42" fill="#020303"></path>
                    <path d="M8.67230467,23.5872623 C8.63274382,23.8255246 8.47355847,24.2616339 8.23525141,24.7376885 C7.99647339,25.2137432 8.23525141,26.0074809 8.23525141,26.0074809 C8.19521959,25.9280601 8.71186553,24.7776339 8.91108269,24.4994262 C9.10935793,24.2216885 9.07026804,23.9838962 9.03023622,23.6267377 C8.98973344,23.2695792 8.71186553,23.3494699 8.67230467,23.5872623" id="Fill-44" fill="#020303"></path>
                    <path d="M23.8199207,44.8378153 C23.7780051,44.8129082 23.7502183,44.7997497 23.7502183,44.7997497 C23.7502183,44.7997497 23.7756503,44.8152579 23.8199207,44.8378153" id="Fill-46" fill="#020303"></path>
                    <path d="M22.6480246,45.0961913 C22.8175711,45.1807814 23.5805305,45.3499617 23.5805305,45.3499617 C23.5805305,45.3499617 22.2246293,43.8701038 21.9707804,44.1656995 C21.7159897,44.4612951 22.478949,45.0111311 22.6480246,45.0961913" id="Fill-48" fill="#020303"></path>
                    <path d="M16.7396108,33.600435 C16.7471462,32.757823 17.3838876,32.1219869 17.3838876,32.1219869 C17.3838876,32.1219869 17.0433817,32.2775388 16.813552,32.6318776 C16.5837222,32.9866863 16.7396108,33.600435 16.7396108,33.600435" id="Fill-50" fill="#020303"></path>
                    <path d="M8.04865604,32.0542678 C7.89794802,32.3235464 8.25823438,32.5030656 8.25823438,32.5030656 C8.25823438,32.5030656 8.52762497,32.3832295 8.73814524,32.1435574 C8.94772358,31.9048251 8.85776973,30.7078743 8.85776973,30.7078743 C8.85776973,30.7078743 8.19842214,31.7849891 8.04865604,32.0542678" id="Fill-52" fill="#020303"></path>
                    <path d="M10.3572674,18.8017148 C10.476421,18.4426765 10.5965164,17.9642721 10.5965164,17.9642721 C10.2668426,18.2335508 9.72711953,19.6095508 9.51707022,20.1180317 C9.30749188,20.6265126 9.54721183,20.8361082 9.54721183,20.8361082 C9.54721183,20.8361082 10.236701,19.160753 10.3572674,18.8017148" id="Fill-54" fill="#020303"></path>
                    <path d="M14.9737367,13.9258437 C15.183786,14.0748164 15.3636937,14.344565 15.3636937,14.344565 C15.3636937,14.344565 14.5842507,12.6095268 15.5431304,11.5624885 C15.5431304,11.5624885 15.0636905,11.2932098 14.793829,11.8909803 C14.5234965,12.4896907 14.5842507,12.6095268 14.5842507,12.9981716 C14.5842507,13.3868164 14.7641584,13.7759311 14.9737367,13.9258437" id="Fill-56" fill="#020303"></path>
                    <path d="M11.7708145,20.3671497 C10.7686061,20.9390732 10.6244916,21.4155978 10.6244916,21.4155978 C10.6244916,21.4155978 11.5796037,20.4625486 12.1047269,20.5100131 C12.3863626,20.5353902 12.9138406,20.8883191 13.4535637,21.2111716 C12.9350339,21.2393683 12.3670531,21.353565 12.0571597,21.6853464 C11.3916896,22.3959038 10.3466237,23.581106 10.3466237,23.581106 C10.3466237,23.581106 11.1543245,23.6290404 11.4392568,23.0599366 C11.6794477,22.5801224 12.5017484,21.6829967 13.7507411,21.7262317 C11.7477373,22.0166579 11.9144581,23.486647 11.9144581,23.486647 C11.9144581,23.486647 11.9318837,23.4420022 11.9672059,23.3701005 C11.9615543,23.4072262 11.9549608,23.4448219 11.9559028,23.4810077 C12.4381684,23.606953 13.0212201,23.6285705 13.512434,23.5374011 C14.0191898,23.443412 14.3521603,23.2253574 14.5673902,22.9001552 C14.6418023,22.8338929 14.7143305,22.7530623 14.7746137,22.6534339 C14.8132327,22.6802208 14.8565612,22.7055978 14.9074252,22.7281552 C15.236628,22.8738383 15.4513869,22.712177 15.5338054,22.6289967 L15.6863972,22.7972372 L15.8776081,20.7487454 C15.8776081,20.7487454 15.63883,21.0819366 14.9705342,21.0819366 C14.3017673,21.0819366 12.7734938,19.7952262 11.7708145,20.3671497" id="Fill-58" fill="#020303"></path>
                    <polygon id="Fill-60" fill="#231F20" points="142.170882 32.8427421 142.170882 24.5430372 143.91627 22.8009497 149.923397 22.8009497 151.54916 24.4232011 151.54916 26.3532667 148.913653 26.3532667 148.913653 25.2601738 148.41773 24.7653213 145.491168 24.7653213 144.806389 25.4481519 144.806389 32.0057694 145.491168 32.6890699 148.400304 32.6890699 148.948034 32.1425235 148.948034 30.0930918 146.398242 30.0930918 146.398242 28.1461082 151.58354 28.1461082 151.58354 32.9113541 149.889488 34.5843596 143.91627 34.5843596"></polygon>
                    <polygon id="Fill-62" fill="#231F20" points="157.779806 30.9812885 154.08275 22.8009497 156.941493 22.8009497 159.2007 28.4026984 161.545152 22.8009497 164.111898 22.8009497 160.398358 30.9812885 160.398358 34.5843596 157.779806 34.5843596"></polygon>
                    <polygon id="Fill-64" fill="#231F20" points="167.022447 22.8010907 171.027041 22.8010907 173.748263 32.2446426 176.48691 22.8010907 180.50846 22.8010907 180.50846 34.5845005 177.992578 34.5845005 177.992578 24.7480743 175.100397 34.5845005 172.1225 34.5845005 169.264699 24.7480743 169.264699 34.5845005 167.022447 34.5845005"></polygon>
                    <path d="M196.477387,32.705988 L197.008162,32.1763596 L197.008162,30.0587858 L196.409098,29.4614852 L193.003567,29.4614852 L193.003567,32.705988 L196.477387,32.705988 Z M196.426523,27.6169497 L196.991208,27.0365672 L196.991208,25.1920317 L196.460433,24.6624033 L193.003567,24.6624033 L193.003567,27.6169497 L196.426523,27.6169497 Z M190.36759,22.8009497 L198.052286,22.8009497 L199.626714,24.372447 L199.626714,27.2240754 L198.325915,28.5389825 L199.64414,29.8543596 L199.64414,33.0133322 L198.069241,34.5843596 L190.36759,34.5843596 L190.36759,22.8009497 Z" id="Fill-66" fill="#231F20"></path>
                    <polygon id="Fill-68" fill="#231F20" points="203.221713 32.8427421 203.221713 22.8009497 205.857219 22.8009497 205.857219 31.8694852 206.541528 32.5523158 209.074835 32.5523158 209.759144 31.8694852 209.759144 22.8009497 212.395121 22.8009497 212.395121 32.8427421 210.631838 34.5843596 204.984525 34.5843596"></polygon>
                    <polygon id="Fill-70" fill="#231F20" points="215.733022 32.757353 217.735083 32.757353 217.735083 24.6287082 215.733022 24.6287082 215.733022 22.8010907 222.373594 22.8010907 222.373594 24.6287082 220.371061 24.6287082 220.371061 32.757353 222.373594 32.757353 222.373594 34.5845005 215.733022 34.5845005"></polygon>
                    <polygon id="Fill-72" fill="#231F20" points="225.796644 22.8010907 228.432621 22.8010907 228.432621 32.4843148 232.950565 32.4843148 232.950565 34.5845005 225.796644 34.5845005"></polygon>
                    <path d="M242.124398,32.6205989 L242.808706,31.9377683 L242.808706,25.4482929 L242.124398,24.7649923 L238.804112,24.7649923 L238.804112,32.6205989 L242.124398,32.6205989 Z M236.169076,22.8010907 L243.699297,22.8010907 L245.444684,24.5431781 L245.444684,32.8428831 L243.699297,34.5845005 L236.169076,34.5845005 L236.169076,22.8010907 Z" id="Fill-74" fill="#231F20"></path>
                    <polygon id="Fill-76" fill="#231F20" points="249.193452 22.8010907 256.997301 22.8010907 256.997301 24.8162164 251.828958 24.8162164 251.828958 27.5997027 256.535758 27.5997027 256.535758 29.6152984 251.828958 29.6152984 251.828958 32.5693749 257.032153 32.5693749 257.032153 34.5845005 249.193452 34.5845005"></polygon>
                    <g id="Group-80" transform="translate(260.442298, 22.557377)">
                        <mask id="mask-4" fill="white">
                            <use xlink:href="#path-3"></use>
                        </mask>
                        <g id="Clip-79"></g>
                        <path d="M6.20851111,5.55494208 L6.82453014,4.93978361 L6.82453014,2.6685377 L6.24242041,2.08815519 L2.76812957,2.08815519 L2.76812957,5.55494208 L6.20851111,5.55494208 Z M0.133094021,0.243619672 L7.79989362,0.243619672 L9.46003666,1.88325902 L9.46003666,5.57186011 L7.98827864,7.04090929 L9.68280195,12.0270295 L6.96158025,12.0270295 L5.47286758,7.41592568 L2.76812957,7.41592568 L2.76812957,12.0270295 L0.133094021,12.0270295 L0.133094021,0.243619672 Z" id="Fill-78" fill="#231F20" mask="url(#mask-4)"></path>
                    </g>
                    <mask id="mask-6" fill="white">
                        <use xlink:href="#path-5"></use>
                    </mask>
                    <g id="Clip-82"></g>
                    <polygon id="Fill-81" fill="#231F20" mask="url(#mask-6)" points="130.36338 42.3947104 132.494486 42.3947104 132.494486 14.9907869 130.36338 14.9907869"></polygon>
                </g>
            </g>
        </g>
    </g>
</svg>